<svg xmlns="http://www.w3.org/2000/svg" viewBox="0 0 200 200" width="200" height="200">
  <rect width="200" height="200" fill="#0A1428"/>
  <!-- Fire -->
  <!-- Outer flame (red/orange) -->
  <path d="M100,185 Q45,165 38,125 Q32,88 55,65 Q48,90 62,95 Q50,72 65,45 Q70,72 78,78 Q68,52 82,22 Q95,55 92,75 Q105,45 108,22 Q118,50 112,78 Q122,55 132,65 Q125,85 138,88 Q148,72 142,55 Q158,78 155,108 Q165,88 162,70 Q172,100 162,130 Q155,160 100,185 Z"
        fill="#FF4400"/>
  <!-- Mid flame (orange) -->
  <path d="M100,175 Q58,158 52,122 Q46,90 65,72 Q60,92 72,97 Q64,78 76,55 Q82,78 86,85 Q78,62 90,38 Q100,65 98,82 Q108,55 112,40 Q118,64 114,84 Q122,65 130,72 Q124,90 134,94 Q142,78 138,62 Q150,85 148,112 Q155,92 152,76 Q160,102 150,128 Q144,155 100,175 Z"
        fill="#FF7700"/>
  <!-- Inner flame (yellow) -->
  <path d="M100,160 Q72,145 68,118 Q64,95 78,82 Q74,98 84,102 Q78,86 88,68 Q95,85 94,98 Q103,75 108,62 Q112,80 110,96 Q118,80 124,88 Q118,105 126,108 Q130,92 128,78 Q138,98 136,120 Q130,148 100,160 Z"
        fill="#FFDD00"/>
  <!-- Core glow -->
  <path d="M100,145 Q82,132 80,112 Q78,95 90,88 Q88,100 96,104 Q92,92 100,78 Q108,92 104,104 Q112,100 110,88 Q120,96 118,114 Q116,134 100,145 Z"
        fill="#FFFF88" opacity="0.8"/>
</svg>
