<svg xmlns="http://www.w3.org/2000/svg" viewBox="0 0 200 200" width="200" height="200">
  <rect width="200" height="200" fill="#0A1428"/>
  <!-- Phoenix -->
  <!-- Tail flames -->
  <path d="M100,160 Q60,180 40,195 Q70,175 75,185 Q85,165 100,155 Q115,165 125,185 Q130,175 160,195 Q140,180 100,160 Z"
        fill="#FF6600"/>
  <path d="M100,155 Q65,170 50,188 Q75,170 78,182 Q88,160 100,152 Q112,160 122,182 Q125,170 150,188 Q135,170 100,155 Z"
        fill="#FFD700"/>
  <!-- Wings -->
  <path d="M100,90 Q55,60 20,75 Q50,85 45,100 Q60,80 100,95 Z" fill="#FF4400"/>
  <path d="M100,90 Q145,60 180,75 Q150,85 155,100 Q140,80 100,95 Z" fill="#FF4400"/>
  <path d="M100,95 Q62,72 30,82 Q56,90 52,104 Q65,85 100,99 Z" fill="#FF8800"/>
  <path d="M100,95 Q138,72 170,82 Q144,90 148,104 Q135,85 100,99 Z" fill="#FF8800"/>
  <!-- Body -->
  <ellipse cx="100" cy="110" rx="28" ry="40" fill="#FF4400"/>
  <ellipse cx="100" cy="108" rx="20" ry="32" fill="#FF8800"/>
  <!-- Head -->
  <circle cx="100" cy="72" r="24" fill="#FF4400"/>
  <!-- Crest feathers -->
  <path d="M88,52 Q82,28 88,18 Q92,36 96,50 Z" fill="#FFD700"/>
  <path d="M100,48 Q100,22 106,14 Q106,34 108,48 Z" fill="#FF8800"/>
  <path d="M112,52 Q118,28 112,18 Q108,36 104,50 Z" fill="#FFD700"/>
  <!-- Eye -->
  <circle cx="92"  cy="70" r="7" fill="#FFD700"/>
  <circle cx="108" cy="70" r="7" fill="#FFD700"/>
  <circle cx="92"  cy="71" r="4" fill="#111"/>
  <circle cx="108" cy="71" r="4" fill="#111"/>
  <!-- Beak -->
  <polygon points="100,80 93,88 107,88" fill="#FFD700"/>
</svg>
