<svg xmlns="http://www.w3.org/2000/svg" viewBox="0 0 200 200" width="200" height="200">
  <rect width="200" height="200" fill="#0A1428"/>
  <!-- Master Sword -->
  <!-- Blade -->
  <polygon points="100,18 108,140 100,155 92,140" fill="#C0D8F0"/>
  <polygon points="100,18 108,140 104,140" fill="#E8F4FF"/>
  <line x1="100" y1="18" x2="100" y2="155" stroke="#8AB0D0" stroke-width="1"/>
  <!-- Guard -->
  <rect x="68" y="136" width="64" height="14" rx="3" fill="#C8AA6E"/>
  <circle cx="68" cy="143" r="8" fill="#C8AA6E"/>
  <circle cx="132" cy="143" r="8" fill="#C8AA6E"/>
  <rect x="74" y="138" width="52" height="10" rx="2" fill="#FFD700"/>
  <!-- Grip -->
  <rect x="91" y="150" width="18" height="34" rx="3" fill="#4A3728"/>
  <rect x="93" y="154" width="4" height="26" rx="1" fill="#6B5040"/>
  <rect x="103" y="154" width="4" height="26" rx="1" fill="#6B5040"/>
  <!-- Pommel -->
  <ellipse cx="100" cy="186" rx="14" ry="9" fill="#C8AA6E"/>
  <circle cx="100" cy="186" r="5" fill="#FFD700"/>
</svg>
