<svg xmlns="http://www.w3.org/2000/svg" viewBox="0 0 200 200" width="200" height="200">
  <rect width="200" height="200" fill="#0A1428"/>
  <!-- Rainbow arc -->
  <!-- Red -->
  <path d="M18,145 Q18,40 100,40 Q182,40 182,145" fill="none" stroke="#E74C3C" stroke-width="10" stroke-linecap="round"/>
  <!-- Orange -->
  <path d="M28,148 Q28,55 100,55 Q172,55 172,148" fill="none" stroke="#E67E22" stroke-width="10" stroke-linecap="round"/>
  <!-- Yellow -->
  <path d="M38,152 Q38,68 100,68 Q162,68 162,152" fill="none" stroke="#F1C40F" stroke-width="10" stroke-linecap="round"/>
  <!-- Green -->
  <path d="M48,156 Q48,82 100,82 Q152,82 152,156" fill="none" stroke="#2ECC71" stroke-width="10" stroke-linecap="round"/>
  <!-- Blue -->
  <path d="M58,160 Q58,96 100,96 Q142,96 142,160" fill="none" stroke="#3498DB" stroke-width="10" stroke-linecap="round"/>
  <!-- Indigo -->
  <path d="M68,164 Q68,110 100,110 Q132,110 132,164" fill="none" stroke="#5B4FCF" stroke-width="10" stroke-linecap="round"/>
  <!-- Violet -->
  <path d="M78,168 Q78,124 100,124 Q122,124 122,168" fill="none" stroke="#9B59B6" stroke-width="10" stroke-linecap="round"/>
  <!-- Clouds at base -->
  <g fill="white" opacity="0.9">
    <circle cx="30"  cy="158" r="16"/>
    <circle cx="18"  cy="162" r="13"/>
    <circle cx="44"  cy="164" r="14"/>
    <circle cx="55"  cy="160" r="11"/>
    <circle cx="170" cy="158" r="16"/>
    <circle cx="182" cy="162" r="13"/>
    <circle cx="156" cy="164" r="14"/>
    <circle cx="145" cy="160" r="11"/>
  </g>
  <!-- Stars above -->
  <g fill="#FFD700">
    <circle cx="60"  cy="38" r="3"/>
    <circle cx="100" cy="22" r="4"/>
    <circle cx="140" cy="38" r="3"/>
    <circle cx="78"  cy="28" r="2"/>
    <circle cx="122" cy="28" r="2"/>
  </g>
</svg>
